<svg width="512" height="512" viewBox="0 0 512 512" xmlns="http://www.w3.org/2000/svg" role="img" aria-label="MN Loud logo">
  <defs>
    <radialGradient id="burst" cx="50%" cy="35%" r="70%">
      <stop offset="0" stop-color="#FDE68A" />
      <stop offset="0.45" stop-color="#F59E0B" />
      <stop offset="1" stop-color="#7C2D12" />
    </radialGradient>
    <linearGradient id="flame" x1="0" y1="1" x2="1" y2="0">
      <stop offset="0" stop-color="#F97316" />
      <stop offset="0.5" stop-color="#F43F5E" />
      <stop offset="1" stop-color="#A855F7" />
    </linearGradient>
    <linearGradient id="emerald" x1="0" y1="0" x2="1" y2="1">
      <stop offset="0" stop-color="#34D399" />
      <stop offset="1" stop-color="#059669" />
    </linearGradient>
    <filter id="glow" x="-30%" y="-30%" width="160%" height="160%">
      <feGaussianBlur stdDeviation="8" result="blur" />
      <feMerge>
        <feMergeNode in="blur" />
        <feMergeNode in="SourceGraphic" />
      </feMerge>
    </filter>
  </defs>
  <rect width="512" height="512" rx="108" fill="url(#burst)" />
  <g opacity="0.35">
    <path d="M52 116c70 28 120 18 176-10 46-24 116-20 186 6" stroke="#FDE68A" stroke-width="16" fill="none" stroke-linecap="round" />
    <path d="M70 430c60-36 130-30 188-4 66 30 120 28 184-4" stroke="#FDBA74" stroke-width="16" fill="none" stroke-linecap="round" />
  </g>
  <g filter="url(#glow)">
    <path d="M256 70c-54 54-92 120-92 186 0 92 62 154 92 186 30-32 92-94 92-186 0-66-38-132-92-186z" fill="url(#flame)" />
    <path d="M256 120c-30 34-52 74-52 122 0 58 36 96 52 120 18-22 52-62 52-120 0-48-22-88-52-122z" fill="url(#emerald)" opacity="0.85" />
  </g>
  <g font-family="Trebuchet MS, Arial Black, Arial, sans-serif" font-weight="800" text-anchor="middle" fill="#0B0B15" filter="url(#glow)">
    <text x="256" y="270" font-size="124" letter-spacing="2">MN</text>
    <text x="256" y="360" font-size="92" letter-spacing="1">Loud</text>
  </g>
  <g fill="none" stroke="#0B0B15" stroke-width="12" stroke-linecap="round" opacity="0.7">
    <path d="M120 398c28-26 56-26 84 0" />
    <path d="M210 398c28-26 56-26 84 0" />
    <path d="M300 398c28-26 56-26 84 0" />
  </g>
</svg>
